# xmcd CD database file
#
# Track frame offsets:
#	183
#	3848
#	19460
#	40040
#	64038
#	83823
#	93093
#	107083
#	122743
#	131833
#	142998
#	152543
#	165900
#	175953
#	190170
#	219853
#	232775
#	250990
#	262128
#	278080
#	291565
#	305908
#
# Disc length: 4141 seconds
#
# Revision: 1
# Processed by: cddbd v1.5PL3 Copyright (c) Steve Scherf et al.
# Submitted via: CDex 1.51
#
DISCID=2e102b16
DTITLE=c.basie l.young b.hliday s.vaughan c.parker - Carnegie Hall Concert 25-septembre 1954
DYEAR=1954
DGENRE=Jazz
TTITLE0=( Count Basie )-LULLABY OF BIRDLAND
TTITLE1=( Count Basie )-YOU FOR ME
TTITLE2=( Count Basie )-BLUES BACKSTAGE
TTITLE3=( Count Basie )-PERDIDO
TTITLE4=( Charlie Parker )-THE SONG IS YOU
TTITLE5=( Charlie Parker )-MY FUNNY VALENTINE
TTITLE6=( Charlie Parker )-COOL BLUES
TTITLE7=( Count Basie )-TWO FRANKS
TTITLE8=( Billie Holiday )-ALL OF ME
TTITLE9=( Billie Holiday )-AIN T NOBODY SBUISINESS IF I DO
TTITLE10=( Billie Holiday )-LOVER COME BACK TO ME
TTITLE11=( Billie Holiday )-MY MAN
TTITLE12=( Billie Holiday )-THEM THERE EYES
TTITLE13=( Billie Holiday )-LOVER MAN
TTITLE14=( Count Basie )-SURE THING
TTITLE15=( Lester young )-PENNIES FROM HEAVEN
TTITLE16=( Lester young )-JUMPIN  AT THE WOODSIDE
TTITLE17=( Sarah Vaughan )-perdido
TTITLE18=( Sarah Vaughan )-POLKA DOTS AND MOONBEAMS
TTITLE19=( Sarah Vaughan )-TENDERLY
TTITLE20=( Sarah Vaughan )-DONT BLAME ME
TTITLE21=( Count Basie )-ONE O CLOCK JUMP
EXTD=YEAR: 1954
EXTT0=
EXTT1=
EXTT2=
EXTT3=
EXTT4=
EXTT5=
EXTT6=
EXTT7=
EXTT8=
EXTT9=
EXTT10=
EXTT11=
EXTT12=
EXTT13=
EXTT14=
EXTT15=
EXTT16=
EXTT17=
EXTT18=
EXTT19=
EXTT20=
EXTT21=
PLAYORDER=
